<?xml version="1.0" encoding="utf-8"?><svg viewBox="0 0 28 26" xmlns="http://www.w3.org/2000/svg" xmlns:xlink="http://www.w3.org/1999/xlink"><style>:root>svg{display:none}:root>svg:target{display:block}</style><svg fill="none" viewBox="0 0 26 20" id="Group_73" xmlns="http://www.w3.org/2000/svg"><path clip-rule="evenodd" d="M16.952 10.066a3.952 3.952 0 11-7.904-.001 3.952 3.952 0 017.904.001z" stroke="#fff" stroke-width="1.5" stroke-linecap="round" stroke-linejoin="round"/><path clip-rule="evenodd" d="M12.998 19.194c4.76 0 9.113-3.423 11.565-9.128C22.11 4.361 17.758.94 12.998.94h.005c-4.76 0-9.114 3.422-11.566 9.127 2.452 5.705 6.805 9.128 11.566 9.128h-.005z" stroke="#fff" stroke-width="1.5" stroke-linecap="round" stroke-linejoin="round"/></svg><svg viewBox="0 0 7 8" id="angle" xmlns="http://www.w3.org/2000/svg"><g clip-path="url(#bclip0)"><path d="M6.92 5.69a.273.273 0 01-.387 0l-2.84-2.834a.274.274 0 00-.387 0L.466 5.69a.273.273 0 01-.386-.387L2.92 2.47a.818.818 0 011.16 0l2.84 2.833a.273.273 0 010 .387z"/></g><defs><clipPath id="bclip0"><path fill="#fff" transform="matrix(1 0 0 -1 0 7.5)" d="M0 0h7v7H0z"/></clipPath></defs></svg><svg viewBox="0 0 20 19" id="cart" xmlns="http://www.w3.org/2000/svg"><path d="M20 6.579h-3.396L13.036.319a.608.608 0 00-.858-.225.678.678 0 00-.214.902l3.182 5.583H4.854L8.036.996a.678.678 0 00-.214-.902.608.608 0 00-.858.225L3.396 6.58H0v1.316h1.357l1.587 8.915c.166.934.941 1.611 1.844 1.611h10.424c.902 0 1.678-.677 1.843-1.61l1.588-8.916H20V6.579zm-4.174 9.99a.634.634 0 01-.614.536H4.788c-.301 0-.56-.225-.615-.537L2.628 7.895h14.744l-1.546 8.674z"/></svg><svg fill="none" viewBox="0 0 28 26" id="cart-icon" xmlns="http://www.w3.org/2000/svg"><path d="M28 9.286h-4.755L18.25.45c-.247-.44-.785-.582-1.2-.319-.415.264-.549.835-.3 1.274l4.455 7.88H6.795l4.455-7.88c.249-.44.115-1.01-.3-1.274-.416-.264-.952-.12-1.2.319L4.755 9.286H0v1.857h1.9l2.222 12.584C4.354 25.044 5.44 26 6.702 26h14.595c1.263 0 2.348-.956 2.58-2.273l2.224-12.584H28V9.286zm-5.843 14.1c-.077.439-.438.757-.86.757H6.703c-.422 0-.783-.318-.86-.758L3.678 11.143h20.642l-2.164 12.243z" fill="#fff"/></svg><svg fill="none" viewBox="0 0 20 20" id="trash" xmlns="http://www.w3.org/2000/svg"><path d="M18.572 2.857h-5v-.714C13.572.959 12.611 0 11.428 0H8.572C7.388 0 6.429.96 6.429 2.143v.714h-5a.714.714 0 100 1.429h.776L3.572 19.35c.033.369.343.65.714.649h11.428c.37.002.681-.28.715-.65l1.366-15.064h.776a.714.714 0 100-1.429zM7.857 2.143c0-.395.32-.714.715-.714h2.857c.394 0 .714.32.714.714v.714H7.857v-.714zm7.205 16.428H4.938L3.643 4.286H16.36L15.062 18.57z" fill="#4D4D4D" fill-opacity=".3"/><path d="M7.857 16.381v-.003l-.714-10a.716.716 0 00-1.429.101l.715 10a.714.714 0 00.714.664h.051a.714.714 0 00.663-.762zM10 5.714a.714.714 0 00-.714.715v10a.714.714 0 101.428 0v-10A.714.714 0 0010 5.714zM13.622 5.714a.716.716 0 00-.765.664l-.714 10a.714.714 0 00.66.764H12.856c.376.002.688-.288.715-.663l.715-10a.716.716 0 00-.664-.765z" fill="#4D4D4D" fill-opacity=".3"/></svg></svg>